<svg width="64" height="64" viewBox="0 0 64 64" fill="none" xmlns="http://www.w3.org/2000/svg">
<rect width="64" height="64" fill="#70232E"/>
<path d="M40.2674 23.6424C40.2674 22.2136 39.9816 20.9953 39.4101 19.9876C38.8536 18.9799 37.9436 18.2128 36.6802 17.6864C35.4168 17.16 33.7323 16.8968 31.6266 16.8968H25.5578L25.7609 14.7535H35.1235C37.9361 14.7535 40.1997 15.1446 41.9143 15.9267C43.6439 16.6937 44.8998 17.739 45.6819 19.0626C46.4791 20.3861 46.8776 21.8526 46.8776 23.4619C46.8776 25.1164 46.4715 26.6354 45.6594 28.0192C44.8472 29.3878 43.5687 30.4858 41.824 31.313C40.0944 32.1402 37.8609 32.5539 35.1235 32.5539H25.7609L25.5578 30.4106H33.3864C34.725 30.4106 35.9132 30.1549 36.9509 29.6435C37.9887 29.1322 38.8009 28.3726 39.3875 27.3649C39.9741 26.3572 40.2674 25.1164 40.2674 23.6424ZM29.709 14.7535V44.0147L33.251 45.1653V46H19.5116V45.1653L23.031 44.0147V16.7163L19.5116 15.5882V14.7535H29.709Z" fill="white"/>
</svg>
